<svg xmlns="http://www.w3.org/2000/svg" viewBox="0 0 128 128"><rect width="128" height="128" rx="16" fill="#3A4454"/><rect x="36" y="36" width="56" height="56" rx="6" fill="#6C839D"/><rect x="44" y="44" width="40" height="40" rx="3" fill="#3A4454"/><circle cx="64" cy="64" r="8" fill="#6C839D"/><line x1="36" y1="50" x2="24" y2="50" stroke="#6C839D" stroke-width="4" stroke-linecap="round"/><line x1="36" y1="64" x2="24" y2="64" stroke="#6C839D" stroke-width="4" stroke-linecap="round"/><line x1="36" y1="78" x2="24" y2="78" stroke="#6C839D" stroke-width="4" stroke-linecap="round"/><line x1="92" y1="50" x2="104" y2="50" stroke="#6C839D" stroke-width="4" stroke-linecap="round"/><line x1="92" y1="64" x2="104" y2="64" stroke="#6C839D" stroke-width="4" stroke-linecap="round"/><line x1="92" y1="78" x2="104" y2="78" stroke="#6C839D" stroke-width="4" stroke-linecap="round"/><line x1="50" y1="36" x2="50" y2="24" stroke="#6C839D" stroke-width="4" stroke-linecap="round"/><line x1="64" y1="36" x2="64" y2="24" stroke="#6C839D" stroke-width="4" stroke-linecap="round"/><line x1="78" y1="36" x2="78" y2="24" stroke="#6C839D" stroke-width="4" stroke-linecap="round"/><line x1="50" y1="92" x2="50" y2="104" stroke="#6C839D" stroke-width="4" stroke-linecap="round"/><line x1="64" y1="92" x2="64" y2="104" stroke="#6C839D" stroke-width="4" stroke-linecap="round"/><line x1="78" y1="92" x2="78" y2="104" stroke="#6C839D" stroke-width="4" stroke-linecap="round"/></svg>